<svg width="25" height="25" viewBox="0 0 25 25" fill="none" xmlns="http://www.w3.org/2000/svg">
<g clip-path="url(#clip0_702_51)">
<path d="M3.80257 3.48645L21.9776 3.48645C22.2454 3.48645 22.5023 3.59283 22.6916 3.78219C22.881 3.97155 22.9874 4.22838 22.9874 4.49618V20.6518C22.9874 20.9196 22.881 21.1764 22.6916 21.3658C22.5023 21.5551 22.2454 21.6615 21.9776 21.6615H3.80257C3.53478 21.6615 3.27795 21.5551 3.08859 21.3658C2.89923 21.1764 2.79285 20.9196 2.79285 20.6518L2.79285 4.49618C2.79285 4.22838 2.89923 3.97155 3.08859 3.78219C3.27795 3.59283 3.53478 3.48645 3.80257 3.48645ZM20.9679 7.76567L12.9628 14.9347L4.8123 7.74346L4.8123 19.6421H20.9679V7.76567ZM5.32827 5.5059L12.9517 12.2327L20.4651 5.5059L5.32827 5.5059Z" fill="white"/>
</g>
<defs>
<clipPath id="clip0_702_51">
<rect width="24.2334" height="24.2334" fill="white" transform="translate(0.773743 0.457275)"/>
</clipPath>
</defs>
</svg>
