<svg width="224" height="40" viewBox="0 0 224 40" fill="none" xmlns="http://www.w3.org/2000/svg">
<path d="M2.07741 29V10.0909H8.81747C10.2886 10.0909 11.5073 10.3587 12.4737 10.8942C13.4401 11.4297 14.1634 12.1622 14.6435 13.0916C15.1236 14.0149 15.3636 15.0552 15.3636 16.2124C15.3636 17.3757 15.1205 18.4221 14.6342 19.3516C14.1541 20.2749 13.4278 21.0073 12.4553 21.549C11.4889 22.0845 10.2732 22.3523 8.80824 22.3523H4.1733V19.9332H8.54972C9.47917 19.9332 10.2332 19.7732 10.8118 19.4531C11.3904 19.1269 11.8151 18.6837 12.0859 18.1236C12.3568 17.5634 12.4922 16.9264 12.4922 16.2124C12.4922 15.4983 12.3568 14.8643 12.0859 14.3104C11.8151 13.7564 11.3873 13.3224 10.8026 13.0085C10.224 12.6946 9.4607 12.5376 8.51278 12.5376H4.9304V29H2.07741ZM22.7469 29.3139C21.8482 29.3139 21.0357 29.1477 20.3094 28.8153C19.583 28.4768 19.0075 27.9875 18.5828 27.3473C18.1642 26.7071 17.955 25.9223 17.955 24.9929C17.955 24.1927 18.1088 23.5341 18.4166 23.017C18.7244 22.5 19.1399 22.0907 19.6631 21.7891C20.1863 21.4875 20.771 21.2597 21.4173 21.1058C22.0636 20.9519 22.7222 20.835 23.3932 20.755C24.2426 20.6565 24.932 20.5765 25.4614 20.5149C25.9907 20.4472 26.3754 20.3395 26.6155 20.1918C26.8555 20.044 26.9756 19.804 26.9756 19.4716V19.407C26.9756 18.6006 26.7478 17.9759 26.2923 17.5327C25.843 17.0895 25.1721 16.8679 24.2795 16.8679C23.3501 16.8679 22.6176 17.0741 22.0821 17.4865C21.5527 17.8928 21.1865 18.3452 20.9834 18.8438L18.3889 18.2528C18.6967 17.3911 19.146 16.6955 19.7369 16.1662C20.334 15.6307 21.0203 15.2429 21.7959 15.0028C22.5714 14.7566 23.387 14.6335 24.2426 14.6335C24.8089 14.6335 25.409 14.7012 26.043 14.8366C26.6832 14.9659 27.2802 15.206 27.8342 15.5568C28.3944 15.9077 28.8529 16.4093 29.2099 17.0618C29.5669 17.7081 29.7454 18.5483 29.7454 19.5824V29H27.0494V27.0611H26.9386C26.7601 27.4181 26.4924 27.7689 26.1354 28.1136C25.7783 28.4583 25.3198 28.7446 24.7596 28.9723C24.1995 29.2 23.5286 29.3139 22.7469 29.3139ZM23.347 27.098C24.1103 27.098 24.7627 26.9472 25.3044 26.6456C25.8522 26.344 26.2677 25.95 26.5508 25.4638C26.8401 24.9714 26.9848 24.4451 26.9848 23.8849V22.0568C26.8863 22.1553 26.6955 22.2476 26.4123 22.3338C26.1354 22.4138 25.8184 22.4846 25.4614 22.5462C25.1043 22.6016 24.7566 22.6539 24.418 22.7031C24.0795 22.7462 23.7963 22.7831 23.5686 22.8139C23.0331 22.8816 22.5437 22.9955 22.1006 23.1555C21.6635 23.3156 21.3127 23.5464 21.048 23.848C20.7895 24.1435 20.6602 24.5374 20.6602 25.0298C20.6602 25.7131 20.9126 26.2301 21.4173 26.581C21.9221 26.9257 22.5653 27.098 23.347 27.098ZM34.9197 34.3182C34.5073 34.3182 34.1318 34.2843 33.7933 34.2166C33.4547 34.1551 33.2024 34.0874 33.0362 34.0135L33.7009 31.7514C34.2057 31.8868 34.655 31.9453 35.0489 31.9268C35.4429 31.9084 35.7907 31.7607 36.0923 31.4837C36.4 31.2067 36.6709 30.7543 36.9048 30.1264L37.2464 29.1847L32.0575 14.8182H35.012L38.6036 25.8239H38.7514L42.343 14.8182H45.3068L39.4623 30.8928C39.1915 31.6314 38.8468 32.2562 38.4282 32.767C38.0096 33.2841 37.5111 33.6719 36.9325 33.9304C36.3539 34.1889 35.6829 34.3182 34.9197 34.3182ZM60.2933 14.8182L55.1506 29H52.196L47.044 14.8182H50.0078L53.5994 25.7315H53.7472L57.3295 14.8182H60.2933ZM66.8687 29.3139C65.97 29.3139 65.1575 29.1477 64.4312 28.8153C63.7048 28.4768 63.1293 27.9875 62.7046 27.3473C62.286 26.7071 62.0768 25.9223 62.0768 24.9929C62.0768 24.1927 62.2306 23.5341 62.5384 23.017C62.8462 22.5 63.2617 22.0907 63.7849 21.7891C64.3081 21.4875 64.8928 21.2597 65.5391 21.1058C66.1854 20.9519 66.844 20.835 67.515 20.755C68.3644 20.6565 69.0538 20.5765 69.5831 20.5149C70.1125 20.4472 70.4972 20.3395 70.7373 20.1918C70.9773 20.044 71.0974 19.804 71.0974 19.4716V19.407C71.0974 18.6006 70.8696 17.9759 70.4141 17.5327C69.9648 17.0895 69.2938 16.8679 68.4013 16.8679C67.4719 16.8679 66.7394 17.0741 66.2039 17.4865C65.6745 17.8928 65.3083 18.3452 65.1052 18.8438L62.5107 18.2528C62.8185 17.3911 63.2678 16.6955 63.8587 16.1662C64.4558 15.6307 65.1421 15.2429 65.9177 15.0028C66.6932 14.7566 67.5088 14.6335 68.3644 14.6335C68.9307 14.6335 69.5308 14.7012 70.1648 14.8366C70.805 14.9659 71.402 15.206 71.956 15.5568C72.5161 15.9077 72.9747 16.4093 73.3317 17.0618C73.6887 17.7081 73.8672 18.5483 73.8672 19.5824V29H71.1712V27.0611H71.0604C70.8819 27.4181 70.6142 27.7689 70.2572 28.1136C69.9001 28.4583 69.4416 28.7446 68.8814 28.9723C68.3213 29.2 67.6504 29.3139 66.8687 29.3139ZM67.4688 27.098C68.2321 27.098 68.8845 26.9472 69.4262 26.6456C69.974 26.344 70.3895 25.95 70.6726 25.4638C70.9619 24.9714 71.1066 24.4451 71.1066 23.8849V22.0568C71.0081 22.1553 70.8173 22.2476 70.5341 22.3338C70.2572 22.4138 69.9402 22.4846 69.5831 22.5462C69.2261 22.6016 68.8784 22.6539 68.5398 22.7031C68.2013 22.7462 67.9181 22.7831 67.6904 22.8139C67.1549 22.8816 66.6655 22.9955 66.2224 23.1555C65.7853 23.3156 65.4345 23.5464 65.1698 23.848C64.9113 24.1435 64.782 24.5374 64.782 25.0298C64.782 25.7131 65.0344 26.2301 65.5391 26.581C66.0438 26.9257 66.6871 27.098 67.4688 27.098ZM80.5649 20.5795V29H77.8043V14.8182H80.4541V17.1264H80.6295C80.9558 16.3755 81.4667 15.7723 82.1622 15.3168C82.8639 14.8613 83.7472 14.6335 84.8121 14.6335C85.7785 14.6335 86.6248 14.8366 87.3511 15.2429C88.0775 15.643 88.6407 16.2401 89.0408 17.0341C89.4409 17.8281 89.6409 18.8099 89.6409 19.9794V29H86.8803V20.3118C86.8803 19.2839 86.6125 18.4806 86.077 17.902C85.5415 17.3172 84.8059 17.0249 83.8703 17.0249C83.2302 17.0249 82.6608 17.1634 82.1622 17.4403C81.6698 17.7173 81.2789 18.1236 80.9896 18.6591C80.7065 19.1884 80.5649 19.8286 80.5649 20.5795ZM100.223 14.8182V17.0341H92.4769V14.8182H100.223ZM94.5543 11.4205H97.315V24.8359C97.315 25.3714 97.395 25.7746 97.555 26.0455C97.7151 26.3101 97.9213 26.4917 98.1736 26.5902C98.4322 26.6825 98.7122 26.7287 99.0138 26.7287C99.2354 26.7287 99.4293 26.7133 99.5955 26.6825C99.7617 26.6518 99.891 26.6271 99.9833 26.6087L100.482 28.8892C100.322 28.9508 100.094 29.0123 99.7986 29.0739C99.5032 29.1416 99.1339 29.1785 98.6907 29.1847C97.9644 29.197 97.2873 29.0677 96.6594 28.7969C96.0316 28.526 95.5238 28.1075 95.136 27.5412C94.7482 26.9749 94.5543 26.264 94.5543 25.4084V11.4205ZM107.664 29.3139C106.766 29.3139 105.953 29.1477 105.227 28.8153C104.5 28.4768 103.925 27.9875 103.5 27.3473C103.082 26.7071 102.872 25.9223 102.872 24.9929C102.872 24.1927 103.026 23.5341 103.334 23.017C103.642 22.5 104.057 22.0907 104.58 21.7891C105.104 21.4875 105.688 21.2597 106.335 21.1058C106.981 20.9519 107.64 20.835 108.311 20.755C109.16 20.6565 109.849 20.5765 110.379 20.5149C110.908 20.4472 111.293 20.3395 111.533 20.1918C111.773 20.044 111.893 19.804 111.893 19.4716V19.407C111.893 18.6006 111.665 17.9759 111.21 17.5327C110.76 17.0895 110.089 16.8679 109.197 16.8679C108.268 16.8679 107.535 17.0741 107 17.4865C106.47 17.8928 106.104 18.3452 105.901 18.8438L103.306 18.2528C103.614 17.3911 104.063 16.6955 104.654 16.1662C105.251 15.6307 105.938 15.2429 106.713 15.0028C107.489 14.7566 108.304 14.6335 109.16 14.6335C109.726 14.6335 110.326 14.7012 110.96 14.8366C111.601 14.9659 112.198 15.206 112.752 15.5568C113.312 15.9077 113.77 16.4093 114.127 17.0618C114.484 17.7081 114.663 18.5483 114.663 19.5824V29H111.967V27.0611H111.856C111.678 27.4181 111.41 27.7689 111.053 28.1136C110.696 28.4583 110.237 28.7446 109.677 28.9723C109.117 29.2 108.446 29.3139 107.664 29.3139ZM108.264 27.098C109.028 27.098 109.68 26.9472 110.222 26.6456C110.77 26.344 111.185 25.95 111.468 25.4638C111.758 24.9714 111.902 24.4451 111.902 23.8849V22.0568C111.804 22.1553 111.613 22.2476 111.33 22.3338C111.053 22.4138 110.736 22.4846 110.379 22.5462C110.022 22.6016 109.674 22.6539 109.335 22.7031C108.997 22.7462 108.714 22.7831 108.486 22.8139C107.951 22.8816 107.461 22.9955 107.018 23.1555C106.581 23.3156 106.23 23.5464 105.965 23.848C105.707 24.1435 105.578 24.5374 105.578 25.0298C105.578 25.7131 105.83 26.2301 106.335 26.581C106.839 26.9257 107.483 27.098 108.264 27.098ZM124.546 34.6136C123.419 34.6136 122.45 34.4659 121.638 34.1705C120.831 33.875 120.173 33.4841 119.662 32.9979C119.151 32.5116 118.769 31.9792 118.517 31.4006L120.89 30.4219C121.056 30.6927 121.277 30.9789 121.554 31.2805C121.838 31.5883 122.219 31.8499 122.699 32.0653C123.186 32.2808 123.81 32.3885 124.574 32.3885C125.62 32.3885 126.485 32.133 127.168 31.6222C127.851 31.1174 128.193 30.3111 128.193 29.2031V26.4148H128.018C127.851 26.7164 127.611 27.0518 127.297 27.4212C126.99 27.7905 126.565 28.1106 126.023 28.3814C125.482 28.6522 124.777 28.7876 123.909 28.7876C122.789 28.7876 121.779 28.526 120.88 28.0028C119.988 27.4735 119.28 26.6948 118.757 25.6669C118.24 24.6328 117.981 23.3617 117.981 21.8537C117.981 20.3456 118.237 19.053 118.748 17.9759C119.265 16.8987 119.973 16.0739 120.871 15.5014C121.77 14.9228 122.789 14.6335 123.927 14.6335C124.808 14.6335 125.518 14.7812 126.06 15.0767C126.602 15.366 127.023 15.7045 127.325 16.0923C127.633 16.4801 127.87 16.8217 128.036 17.1172H128.239V14.8182H130.944V29.3139C130.944 30.5327 130.661 31.5329 130.095 32.3146C129.529 33.0964 128.762 33.675 127.796 34.0504C126.836 34.4259 125.752 34.6136 124.546 34.6136ZM124.518 26.4979C125.312 26.4979 125.983 26.3132 126.531 25.9439C127.085 25.5684 127.504 25.0329 127.787 24.3374C128.076 23.6357 128.221 22.7955 128.221 21.8168C128.221 20.8627 128.079 20.0225 127.796 19.2962C127.513 18.5698 127.097 18.0036 126.549 17.5973C126.002 17.1849 125.325 16.9787 124.518 16.9787C123.687 16.9787 122.995 17.1941 122.441 17.625C121.887 18.0497 121.468 18.6283 121.185 19.3608C120.908 20.0933 120.77 20.9119 120.77 21.8168C120.77 22.7462 120.911 23.5618 121.194 24.2635C121.477 24.9652 121.896 25.513 122.45 25.907C123.01 26.3009 123.7 26.4979 124.518 26.4979ZM141.019 29.2862C139.622 29.2862 138.418 28.9877 137.409 28.3906C136.406 27.7874 135.63 26.9411 135.082 25.8516C134.541 24.7559 134.27 23.4725 134.27 22.0014C134.27 20.5488 134.541 19.2685 135.082 18.1605C135.63 17.0526 136.393 16.1877 137.372 15.5661C138.357 14.9444 139.508 14.6335 140.825 14.6335C141.625 14.6335 142.401 14.7659 143.152 15.0305C143.903 15.2952 144.577 15.7107 145.174 16.277C145.771 16.8433 146.242 17.5788 146.586 18.4837C146.931 19.3823 147.103 20.4749 147.103 21.7614V22.7401H135.83V20.6719H144.398C144.398 19.9455 144.251 19.3023 143.955 18.7422C143.66 18.1759 143.244 17.7296 142.709 17.4034C142.179 17.0772 141.558 16.9141 140.844 16.9141C140.068 16.9141 139.391 17.1049 138.812 17.4865C138.24 17.862 137.797 18.3544 137.483 18.9638C137.175 19.567 137.021 20.2225 137.021 20.9304V22.5462C137.021 23.4941 137.187 24.3004 137.52 24.9652C137.858 25.63 138.329 26.1378 138.932 26.4886C139.536 26.8333 140.24 27.0057 141.047 27.0057C141.57 27.0057 142.047 26.9318 142.478 26.7841C142.909 26.6302 143.281 26.4025 143.595 26.1009C143.909 25.7992 144.149 25.4268 144.315 24.9837L146.928 25.4545C146.719 26.224 146.343 26.898 145.802 27.4766C145.266 28.049 144.592 28.4953 143.78 28.8153C142.973 29.1293 142.053 29.2862 141.019 29.2862Z" fill="white"/>
</svg>
